<svg width="24" height="24" viewBox="0 0 24 24" fill="none" xmlns="http://www.w3.org/2000/svg">
<g id="add-circle 2">
<path id="Vector" d="M11.5518 1.5C8.90949 1.53188 6.38444 2.59568 4.51594 4.46418C2.64744 6.33268 1.58364 8.85774 1.55176 11.5C1.58364 14.1423 2.64744 16.6673 4.51594 18.5358C6.38444 20.4043 8.90949 21.4681 11.5518 21.5C14.194 21.4681 16.7191 20.4043 18.5876 18.5358C20.4561 16.6673 21.5199 14.1423 21.5518 11.5C21.5199 8.85774 20.4561 6.33268 18.5876 4.46418C16.7191 2.59568 14.194 1.53188 11.5518 1.5ZM17.266 12.2143H12.266V17.2143H10.8375V12.2143H5.83747V10.7857H10.8375V5.78571H12.266V10.7857H17.266V12.2143Z" fill="#4EAD33"/>
</g>
</svg>
