<svg width="20" height="20" viewBox="0 0 20 20" fill="none" xmlns="http://www.w3.org/2000/svg">
<path d="M19.1667 15.0001C19.1667 15.6251 18.9917 16.2167 18.6833 16.7167C18.5083 17.0167 18.2833 17.2834 18.025 17.5001C17.4417 18.0251 16.675 18.3334 15.8333 18.3334C14.8167 18.3334 13.9083 17.8751 13.3083 17.1584C13.2917 17.1334 13.2667 17.1168 13.25 17.0918C13.15 16.9751 13.0583 16.8501 12.9833 16.7167C12.675 16.2167 12.5 15.6251 12.5 15.0001C12.5 13.9501 12.9833 13.0084 13.75 12.4001C14.325 11.9418 15.05 11.6667 15.8333 11.6667C16.6667 11.6667 17.4167 11.9667 18 12.4751C18.1 12.5501 18.1917 12.6418 18.275 12.7334C18.825 13.3334 19.1667 14.1251 19.1667 15.0001Z" stroke="#292D32" stroke-width="1.5" stroke-miterlimit="10" stroke-linecap="round" stroke-linejoin="round"/>
<path d="M17.0751 14.9832H14.5918" stroke="#292D32" stroke-width="1.5" stroke-miterlimit="10" stroke-linecap="round" stroke-linejoin="round"/>
<path d="M15.834 13.7666V16.2583" stroke="#292D32" stroke-width="1.5" stroke-miterlimit="10" stroke-linecap="round" stroke-linejoin="round"/>
<path d="M2.64258 6.2002L10.0009 10.4585L17.3092 6.22517" stroke="#292D32" stroke-width="1.5" stroke-linecap="round" stroke-linejoin="round"/>
<path d="M10 18.0085V10.4502" stroke="#292D32" stroke-width="1.5" stroke-linecap="round" stroke-linejoin="round"/>
<path d="M18.0089 7.64175V12.3584C18.0089 12.4001 18.0089 12.4334 18.0005 12.4751C17.4172 11.9667 16.6672 11.6668 15.8339 11.6668C15.0505 11.6668 14.3255 11.9418 13.7505 12.4001C12.9839 13.0084 12.5005 13.9501 12.5005 15.0001C12.5005 15.6251 12.6755 16.2168 12.9839 16.7168C13.0589 16.8501 13.1505 16.9751 13.2505 17.0918L11.7255 17.9334C10.7755 18.4668 9.22552 18.4668 8.27552 17.9334L3.82552 15.4668C2.81718 14.9084 1.99219 13.5084 1.99219 12.3584V7.64175C1.99219 6.49175 2.81718 5.09177 3.82552 4.53343L8.27552 2.06675C9.22552 1.53341 10.7755 1.53341 11.7255 2.06675L16.1755 4.53343C17.1839 5.09177 18.0089 6.49175 18.0089 7.64175Z" stroke="#292D32" stroke-width="1.5" stroke-linecap="round" stroke-linejoin="round"/>
</svg>
