<svg width="25" height="24" viewBox="0 0 25 24" fill="none" xmlns="http://www.w3.org/2000/svg">
<g id="Cart">
<path id="Vector" d="M8.75 20.25C9.16421 20.25 9.5 19.9142 9.5 19.5C9.5 19.0858 9.16421 18.75 8.75 18.75C8.33579 18.75 8 19.0858 8 19.5C8 19.9142 8.33579 20.25 8.75 20.25Z" stroke="white" stroke-width="1.5" stroke-linecap="round" stroke-linejoin="round"/>
<path id="Vector_2" d="M19.25 20.25C19.6642 20.25 20 19.9142 20 19.5C20 19.0858 19.6642 18.75 19.25 18.75C18.8358 18.75 18.5 19.0858 18.5 19.5C18.5 19.9142 18.8358 20.25 19.25 20.25Z" stroke="white" stroke-width="1.5" stroke-linecap="round" stroke-linejoin="round"/>
<path id="Vector_3" d="M2.75 3.75H5.75L8 16.5H20" stroke="white" stroke-width="1.5" stroke-linecap="round" stroke-linejoin="round"/>
<path id="Vector_4" d="M8 13.5H19.6925C19.7792 13.5001 19.8633 13.4701 19.9304 13.4151C19.9975 13.3601 20.0434 13.2836 20.0605 13.1986L21.4105 6.44859C21.4214 6.39417 21.42 6.338 21.4066 6.28414C21.3931 6.23029 21.3679 6.18009 21.3327 6.13717C21.2975 6.09426 21.2532 6.05969 21.203 6.03597C21.1528 6.01225 21.098 5.99996 21.0425 6H6.5" stroke="white" stroke-width="1.5" stroke-linecap="round" stroke-linejoin="round"/>
</g>
</svg>
