<svg width="24" height="24" viewBox="0 0 24 24" fill="none" xmlns="http://www.w3.org/2000/svg">
<g id="Icon/Down">
<path id="Vector" d="M17.1671 9.13452L11.9995 13.9165L6.83187 9.13452C6.73954 9.04891 6.6156 9.00098 6.48653 9.00098C6.35747 9.00098 6.23353 9.04891 6.1412 9.13452C6.0965 9.1761 6.06098 9.22573 6.03673 9.28051C6.01249 9.33528 6 9.3941 6 9.45351C6 9.51293 6.01249 9.57174 6.03673 9.62652C6.06098 9.68129 6.0965 9.73092 6.1412 9.7725L11.6386 14.8607C11.7352 14.95 11.8647 15 11.9995 15C12.1343 15 12.2638 14.95 12.3603 14.8607L17.8577 9.77349C17.9028 9.73187 17.9385 9.68212 17.963 9.62716C17.9874 9.57221 18 9.51316 18 9.45351C18 9.39386 17.9874 9.33481 17.963 9.27986C17.9385 9.2249 17.9028 9.17515 17.8577 9.13354C17.7654 9.04793 17.6415 9 17.5124 9C17.3833 9 17.2594 9.04793 17.1671 9.13354V9.13452Z" fill="black"/>
</g>
</svg>
