<svg width="24" height="24" viewBox="0 0 24 24" fill="none" xmlns="http://www.w3.org/2000/svg">
<g id="Group">
<path id="Vector" d="M10.0518 0C4.54176 0 0.0517578 4.49 0.0517578 10C0.0517578 15.51 4.54176 20 10.0518 20C15.5618 20 20.0518 15.51 20.0518 10C20.0518 4.49 15.5618 0 10.0518 0ZM13.9718 10.75H5.97176C5.56176 10.75 5.22176 10.41 5.22176 10C5.22176 9.59 5.56176 9.25 5.97176 9.25H13.9718C14.1707 9.25 14.3614 9.32902 14.5021 9.46967C14.6427 9.61032 14.7218 9.80109 14.7218 10C14.7218 10.1989 14.6427 10.3897 14.5021 10.5303C14.3614 10.671 14.1707 10.75 13.9718 10.75Z" fill="#C5CAD4"/>
</g>
</svg>
