<svg width="16" height="16" viewBox="0 0 16 16" fill="none" xmlns="http://www.w3.org/2000/svg">
<g id="Icon/Note" clip-path="url(#clip0_1_22161)">
<path id="Vector" d="M12.444 13.3333H2.66623V3.55551H8.54179L9.43068 2.66663H2.66623C2.43048 2.66663 2.20439 2.76028 2.03769 2.92698C1.87099 3.09367 1.77734 3.31977 1.77734 3.55551V13.3333C1.77734 13.569 1.87099 13.7951 2.03769 13.9618C2.20439 14.1285 2.43048 14.2222 2.66623 14.2222H12.444C12.6798 14.2222 12.9059 14.1285 13.0726 13.9618C13.2392 13.7951 13.3329 13.569 13.3329 13.3333V6.66663L12.444 7.55551V13.3333Z" fill="#36383A"/>
<path id="Vector_2" d="M14.9031 2.5955L13.4053 1.09773C13.3388 1.03107 13.2599 0.97819 13.1729 0.942107C13.086 0.906025 12.9928 0.887451 12.8986 0.887451C12.8045 0.887451 12.7113 0.906025 12.6243 0.942107C12.5374 0.97819 12.4584 1.03107 12.392 1.09773L6.29863 7.22661L5.80529 9.36439C5.78428 9.46802 5.78649 9.57502 5.81176 9.67769C5.83704 9.78036 5.88476 9.87615 5.95148 9.95817C6.01821 10.0402 6.10228 10.1064 6.19766 10.1521C6.29303 10.1977 6.39734 10.2217 6.50307 10.2222C6.55772 10.2282 6.61287 10.2282 6.66752 10.2222L8.82307 9.74662L14.9031 3.60884C14.9697 3.54237 15.0226 3.4634 15.0587 3.37645C15.0948 3.28951 15.1133 3.1963 15.1133 3.10217C15.1133 3.00804 15.0948 2.91483 15.0587 2.82789C15.0226 2.74094 14.9697 2.66197 14.9031 2.5955ZM8.36085 8.92439L6.73418 9.28439L7.11196 7.67106L11.6986 3.05328L12.952 4.30661L8.36085 8.92439ZM13.4542 3.80439L12.2008 2.55106L12.8897 1.84884L14.152 3.11106L13.4542 3.80439Z" fill="#36383A"/>
</g>
<defs>
<clipPath id="clip0_1_22161">
<rect width="16" height="16" fill="white"/>
</clipPath>
</defs>
</svg>
