<svg width="24" height="24" viewBox="0 0 24 24" fill="none" xmlns="http://www.w3.org/2000/svg">
<g id="ph:dots-three-circle-thin">
<path id="Vector" d="M12 2.625C10.1458 2.625 8.33324 3.17483 6.79153 4.20497C5.24982 5.23511 4.04821 6.69929 3.33863 8.41234C2.62906 10.1254 2.44341 12.0104 2.80514 13.829C3.16688 15.6475 4.05976 17.318 5.37088 18.6291C6.682 19.9402 8.35246 20.8331 10.171 21.1949C11.9896 21.5566 13.8746 21.3709 15.5877 20.6614C17.3007 19.9518 18.7649 18.7502 19.795 17.2085C20.8252 15.6668 21.375 13.8542 21.375 12C21.3723 9.51443 20.3837 7.13145 18.6261 5.37389C16.8686 3.61633 14.4856 2.62773 12 2.625ZM12 20.625C10.2941 20.625 8.62658 20.1192 7.20821 19.1714C5.78984 18.2237 4.68435 16.8767 4.03154 15.3006C3.37874 13.7246 3.20793 11.9904 3.54073 10.3173C3.87353 8.64426 4.69498 7.10743 5.90121 5.9012C7.10744 4.69498 8.64426 3.87352 10.3174 3.54073C11.9904 3.20793 13.7246 3.37873 15.3006 4.03154C16.8767 4.68434 18.2237 5.78983 19.1714 7.20821C20.1192 8.62658 20.625 10.2941 20.625 12C20.6225 14.2867 19.713 16.4791 18.0961 18.0961C16.4791 19.713 14.2867 20.6225 12 20.625ZM12.75 12C12.75 12.1483 12.706 12.2933 12.6236 12.4167C12.5412 12.54 12.4241 12.6361 12.287 12.6929C12.15 12.7497 11.9992 12.7645 11.8537 12.7356C11.7082 12.7066 11.5746 12.6352 11.4697 12.5303C11.3648 12.4254 11.2934 12.2918 11.2644 12.1463C11.2355 12.0008 11.2503 11.85 11.3071 11.713C11.3639 11.5759 11.46 11.4588 11.5833 11.3764C11.7067 11.294 11.8517 11.25 12 11.25C12.1989 11.25 12.3897 11.329 12.5303 11.4697C12.671 11.6103 12.75 11.8011 12.75 12ZM8.625 12C8.625 12.1483 8.58102 12.2933 8.49861 12.4167C8.4162 12.54 8.29906 12.6361 8.16202 12.6929C8.02497 12.7497 7.87417 12.7645 7.72869 12.7356C7.5832 12.7066 7.44956 12.6352 7.34467 12.5303C7.23979 12.4254 7.16835 12.2918 7.13942 12.1463C7.11048 12.0008 7.12533 11.85 7.18209 11.713C7.23886 11.5759 7.33499 11.4588 7.45833 11.3764C7.58166 11.294 7.72667 11.25 7.875 11.25C8.07392 11.25 8.26468 11.329 8.40533 11.4697C8.54599 11.6103 8.625 11.8011 8.625 12ZM16.875 12C16.875 12.1483 16.831 12.2933 16.7486 12.4167C16.6662 12.54 16.5491 12.6361 16.412 12.6929C16.275 12.7497 16.1242 12.7645 15.9787 12.7356C15.8332 12.7066 15.6996 12.6352 15.5947 12.5303C15.4898 12.4254 15.4184 12.2918 15.3894 12.1463C15.3605 12.0008 15.3753 11.85 15.4321 11.713C15.4889 11.5759 15.585 11.4588 15.7083 11.3764C15.8317 11.294 15.9767 11.25 16.125 11.25C16.3239 11.25 16.5147 11.329 16.6553 11.4697C16.796 11.6103 16.875 11.8011 16.875 12Z" fill="black"/>
</g>
</svg>
