<svg width="16" height="16" viewBox="0 0 16 16" fill="none" xmlns="http://www.w3.org/2000/svg">
<g id="solar:user-id-linear">
<g id="Group">
<path id="Vector" d="M6.0013 7.33329C6.73768 7.33329 7.33464 6.73634 7.33464 5.99996C7.33464 5.26358 6.73768 4.66663 6.0013 4.66663C5.26492 4.66663 4.66797 5.26358 4.66797 5.99996C4.66797 6.73634 5.26492 7.33329 6.0013 7.33329Z" stroke="#36383A"/>
<path id="Vector_2" d="M8.66732 9.99996C8.66732 10.7366 8.66732 11.3333 6.00065 11.3333C3.33398 11.3333 3.33398 10.7366 3.33398 9.99996C3.33398 9.26329 4.52732 8.66663 6.00065 8.66663C7.47398 8.66663 8.66732 9.26329 8.66732 9.99996Z" stroke="#36383A"/>
<path id="Vector_3" d="M1.33398 7.99996C1.33398 5.48596 1.33398 4.22863 2.11532 3.44796C2.89598 2.66663 4.15332 2.66663 6.66732 2.66663H9.33398C11.848 2.66663 13.1053 2.66663 13.886 3.44796C14.6673 4.22863 14.6673 5.48596 14.6673 7.99996C14.6673 10.514 14.6673 11.7713 13.886 12.552C13.1053 13.3333 11.848 13.3333 9.33398 13.3333H6.66732C4.15332 13.3333 2.89598 13.3333 2.11532 12.552C1.33398 11.7713 1.33398 10.514 1.33398 7.99996Z" stroke="#36383A"/>
<path id="Vector_4" d="M12.6673 8H10.0007M12.6673 6H9.33398M12.6673 10H10.6673" stroke="#36383A" stroke-linecap="round"/>
</g>
</g>
</svg>
