<svg width="49" height="48" viewBox="0 0 49 48" fill="none" xmlns="http://www.w3.org/2000/svg">
<g id="Group 7054">
<path id="Fill 1" fill-rule="evenodd" clip-rule="evenodd" d="M24.5 0C11.2451 0 0.5 10.7451 0.5 24C0.5 37.2548 11.2451 48 24.5 48C37.7549 48 48.5 37.2548 48.5 24C48.5 10.7451 37.7549 0 24.5 0Z" fill="#47C751"/>
<path id="Fill 3" fill-rule="evenodd" clip-rule="evenodd" d="M20.6324 32.1522L19.1172 30.637L33.8001 15.9005C34.3022 15.3984 35.1162 15.3984 35.6184 15.9005L36.2245 16.5066C36.7265 17.0087 36.7265 17.8228 36.2245 18.3249L22.4507 32.1522C21.9486 32.6543 21.1345 32.6543 20.6324 32.1522Z" fill="white"/>
<path id="Fill 5" fill-rule="evenodd" clip-rule="evenodd" d="M23.9643 30.6374L22.4491 32.1526C21.947 32.6547 21.1329 32.6547 20.6308 32.1526L14.5973 26.119C14.0952 25.617 14.0952 24.8029 14.5973 24.3008L15.2034 23.6947C15.7055 23.1926 16.5195 23.1926 17.0217 23.6947L23.9643 30.6374Z" fill="white"/>
</g>
</svg>
