<svg width="20" height="20" viewBox="0 0 20 20" fill="none" xmlns="http://www.w3.org/2000/svg">
<g id="vuesax/linear/ticket-discount">
<g id="ticket-discount">
<path id="Vector" d="M16.2503 10.4168C16.2503 9.26683 17.1837 8.3335 18.3337 8.3335V7.50016C18.3337 4.16683 17.5003 3.3335 14.167 3.3335H5.83366C2.50033 3.3335 1.66699 4.16683 1.66699 7.50016V7.91683C2.81699 7.91683 3.75033 8.85016 3.75033 10.0002C3.75033 11.1502 2.81699 12.0835 1.66699 12.0835V12.5002C1.66699 15.8335 2.50033 16.6668 5.83366 16.6668H14.167C17.5003 16.6668 18.3337 15.8335 18.3337 12.5002C17.1837 12.5002 16.2503 11.5668 16.2503 10.4168Z" stroke="#1E232E" stroke-width="1.5" stroke-linecap="round" stroke-linejoin="round"/>
<path id="Vector_2" d="M7.5 12.2915L12.5 7.2915" stroke="#1E232E" stroke-width="1.5" stroke-linecap="round" stroke-linejoin="round"/>
<path id="Vector_3" d="M12.4951 12.2917H12.5026" stroke="#1E232E" stroke-width="2" stroke-linecap="round" stroke-linejoin="round"/>
<path id="Vector_4" d="M7.4951 7.70817H7.50258" stroke="#1E232E" stroke-width="2" stroke-linecap="round" stroke-linejoin="round"/>
</g>
</g>
</svg>
